<?xml version="1.0" encoding="UTF-8"?>
<svg width="100pt" height="100pt" version="1.1" viewBox="0 0 100 100" xmlns="http://www.w3.org/2000/svg">
 <path d="m70.625 32.281c-4.9961 0-9.0625-4.0664-9.0625-9.0625v-16.969h-39.75c-5.1875 0-9.375 4.1875-9.375 9.375v68.75c0 5.1875 4.1875 9.375 9.375 9.375h56.375c5.1875 0 9.375-4.1875 9.375-9.3438v-52.125zm-20.625 5.4883c5.1094 0 9.25 4.1406 9.25 9.25s-4.1406 9.25-9.25 9.25-9.25-4.1406-9.25-9.25c-0.003906-5.1094 4.1406-9.25 9.25-9.25zm12.945 30.332c0 1.1016-0.77344 2.0547-1.8555 2.2578-3.0898 0.58984-6.8359 1.0508-11.086 1.0508-4.2539 0-7.9961-0.46094-11.086-1.0508-1.0859-0.20703-1.8555-1.1602-1.8555-2.2578v-1.4766c0-3.2188 1.5-6.0586 3.8047-7.957 2.5312 1.9922 5.6797 3.2266 9.1406 3.2266 3.4609 0 6.6094-1.2383 9.1406-3.2266 2.3047 1.8984 3.8047 4.7383 3.8047 7.957z"/>
 <path d="m67.188 23.219c0 1.9297 1.5078 3.4375 3.4375 3.4375h16.938v-0.9375c0-2.5-0.96875-4.875-2.75-6.625l-10.094-10.094c-1.75-1.7812-4.125-2.75-6.625-2.75h-0.90625z"/>
</svg>
