<?xml version="1.0" encoding="UTF-8"?>
<svg width="1200pt" height="1200pt" version="1.1" viewBox="0 0 1200 1200" xmlns="http://www.w3.org/2000/svg">
 <path d="m714 976.8c-3.6016 1.1992-8.3984 1.1992-12 1.1992-33.602 0-60-26.398-60-60s36-63.602 60-63.602c68.398-9.6016 180-60 180-213.6 0-180-120-184.8-120-184.8-66 0-120-55.199-120-123.6 0-92.398 90-123.6 180-123.6 0 0 300 0 300 338.4 0 362.41-338.4 421.21-408 429.61zm-576 0c-3.6016 1.1992-8.3984 1.1992-12 1.1992-33.602 0-60-26.398-60-60s36-63.602 60-63.602c68.398-9.6016 180-60 180-213.6 0-180-120-184.8-120-184.8-66 0-120-55.199-120-123.6 0-92.398 90-123.6 180-123.6 0 0 300 0 300 338.4 0 362.41-338.4 421.21-408 429.61z"/>
</svg>
