<?xml version="1.0" encoding="UTF-8"?>
<svg width="100pt" height="100pt" version="1.1" viewBox="0 0 100 100" xmlns="http://www.w3.org/2000/svg">
 <path d="m92.602 28.949c0-4.6992-3-9.3008-8.3984-9.9492 1.8984-11.602-19.852-15.551-23.801-4.3516-6.1992-2.3008-13.352 3.6484-11.801 10.5-3.0508 0.89844-6 2.75-6 8.1484 0 5.5508 3.1484 8.3516 7.6016 10.449 2.6992 12 14.801 6.8008 14.801 6.8008v24.449h-5v-17.5c0-2.5 0-2.5-2.5-2.5h-25c-2.5 0-2.5 0-2.5 2.5v17.5h-7.5c-2.5 0-2.5 0-2.5 2.5s0 2.5 2.5 2.5h55c2.5 0 2.5 0 2.5-2.5s0-2.5-2.5-2.5h-7.5l0.14844-24.449s5.1992 4.1484 12.5 1.25c4.5-1.8008 8.1992-8.75 6-14.5 2.6992-2.1484 3.9492-5.25 3.9492-8.3516zm-57.602 33.551h20v2.5h-20zm0 12.5v-5h20v5z"/>
</svg>
