<?xml version="1.0" encoding="UTF-8"?>
<svg width="100pt" height="100pt" version="1.1" viewBox="0 0 100 100" xmlns="http://www.w3.org/2000/svg">
 <path d="m90.625 71.875h-15.625c-9.4609 0-18.555 3.9766-25 10.789-6.4453-6.8125-15.539-10.789-25-10.789h-15.625c-1.7266 0-3.125 1.3984-3.125 3.125s1.3984 3.125 3.125 3.125h15.625c8.8047 0 17.215 4.207 22.5 11.25 0.58594 0.78906 1.5156 1.25 2.5 1.25s1.9102-0.46094 2.5-1.25c5.2852-7.043 13.695-11.25 22.5-11.25h15.625c1.7266 0 3.125-1.3984 3.125-3.125s-1.3984-3.125-3.125-3.125z"/>
 <path d="m9.375 68.75h17.992c7.3008 0 14.164 2.7188 19.508 7.6289v-61.074c-5.7266-3.8438-12.453-5.9297-19.508-5.9297h-17.992c-1.7266 0-3.125 1.3984-3.125 3.125v53.125c0 1.7266 1.3984 3.125 3.125 3.125z"/>
 <path d="m90.625 9.375h-17.992c-7.0547 0-13.781 2.0859-19.508 5.9297v61.07c5.3398-4.9062 12.207-7.625 19.508-7.625h17.992c1.7266 0 3.125-1.3984 3.125-3.125v-53.125c0-1.7266-1.3984-3.125-3.125-3.125z"/>
</svg>
