<?xml version="1.0" encoding="UTF-8"?>
<svg width="100pt" height="100pt" version="1.1" viewBox="0 0 100 100" xmlns="http://www.w3.org/2000/svg">
 <path d="m16.664 29.164c0-6.9062 5.5938-12.5 12.5-12.5h41.664c6.9062 0 12.5 5.5938 12.5 12.5v41.664c0 6.9062-5.5938 12.5-12.5 12.5h-41.664c-6.9062 0-12.5-5.5938-12.5-12.5zm38.922 11.711c0.4375-1.4375-0.36719-2.9375-1.7969-3.3438-1.4297-0.40625-2.9453 0.4375-3.3828 1.875l-6 19.711c-0.4375 1.4375 0.36719 2.9375 1.7969 3.3438s2.9453-0.42969 3.3828-1.8672zm-15.984-3.3828c0.63281 1.3516 0.046876 2.9609-1.3047 3.5938-1.8516 0.86719-2.6172 2.0938-2.6172 2.7891v1.9375c0 1.4688-0.35938 2.9219-1.2344 4.1328 0.84375 1.1406 1.2344 2.5312 1.2344 4.0078v2.0703c0 0.20312 0.125 0.70312 0.64844 1.3516 0.50781 0.63281 1.2109 1.1875 1.9453 1.5156 1.3594 0.61719 1.9609 2.2266 1.3438 3.5859-0.61719 1.3594-2.2266 1.9688-3.5859 1.3438-1.5234-0.6875-2.8984-1.7734-3.9219-3.0469-1-1.25-1.8438-2.9062-1.8438-4.75v-2.0703c0-0.64844-0.1875-0.8125-0.26562-0.875-0.15625-0.125-0.61719-0.38281-1.6797-0.38281-1.5 0-2.7109-1.2109-2.7109-2.7109s1.2109-2.7031 2.7109-2.7031c1.0859 0 1.5078-0.28125 1.6406-0.39844 0.10156-0.09375 0.30469-0.34375 0.30469-1.0703v-1.9375c0-3.8828 3.2109-6.5156 5.7422-7.6953 1.3516-0.63281 2.9609-0.046876 3.5938 1.3125zm22.094 21.414c-1.3594 0.63281-1.9375 2.2422-1.3125 3.6016 0.64063 1.3516 2.25 1.9375 3.6016 1.3047 2.5312-1.1797 5.7422-3.8125 5.7422-7.6953v-1.9375c0-0.72656 0.20313-0.97656 0.30469-1.0625 0.13281-0.125 0.54688-0.40625 1.6406-0.40625 1.5 0 2.7109-1.2109 2.7109-2.7031 0-1.4922-1.2109-2.7109-2.7109-2.7109-1.0625 0-1.5234-0.25-1.6797-0.38281-0.078126-0.0625-0.26563-0.22656-0.26563-0.875v-2.0703c0-1.8438-0.84375-3.5-1.8438-4.75-1.0234-1.2656-2.3984-2.3594-3.9219-3.0469-1.3594-0.61719-2.9688-0.015625-3.5859 1.3438s-0.015625 2.9688 1.3438 3.5859c0.73438 0.32813 1.4375 0.88281 1.9453 1.5156 0.52344 0.64844 0.64844 1.1484 0.64844 1.3516v2.0703c0 1.4766 0.39062 2.8672 1.2344 4.0078-0.875 1.2109-1.2344 2.6641-1.2344 4.1328v1.9375c0 0.69531-0.76562 1.9219-2.6172 2.7891z" fill-rule="evenodd"/>
</svg>
