<?xml version="1.0" encoding="UTF-8"?>
<svg width="100pt" height="100pt" version="1.1" viewBox="0 0 100 100" xmlns="http://www.w3.org/2000/svg">
 <path d="m28.918 94.793h42.164c7.2734 0 13.168-5.8984 13.168-13.168v-3.082c-0.003906-6.8047-2.0352-13.449-5.832-19.09-3.8008-5.6406-9.1992-10.02-15.5-12.578 5.3945-3.7031 8.9414-9.5391 9.7422-16.031 0.80078-6.4961-1.2188-13.02-5.5547-17.922-4.3359-4.9023-10.562-7.707-17.105-7.707s-12.77 2.8047-17.105 7.707c-4.332 4.9023-6.3555 11.426-5.5547 17.922 0.80078 6.4922 4.3477 12.328 9.7422 16.031-6.3008 2.5586-11.699 6.9375-15.496 12.578-3.8008 5.6406-5.832 12.285-5.8359 19.09v3.082c0 7.2695 5.8945 13.168 13.168 13.168zm6.375-34.5c1.2227-1.2109 3.1914-1.2109 4.4141 0l0.71094 0.70703c5.293 5.293 13.871 5.293 19.164 0l0.70703-0.70703h0.003907c1.2227-1.1953 3.1797-1.1836 4.3906 0.023437 1.207 1.2109 1.2188 3.168 0.023437 4.3906l-0.71094 0.70703 0.003906 0.003907c-3.7148 3.707-8.75 5.7891-14 5.7891s-10.285-2.082-14-5.7891l-0.70703-0.71094c-1.2109-1.2227-1.2109-3.1914 0-4.4141z"/>
</svg>
