<?xml version="1.0" encoding="UTF-8"?>
<svg width="100pt" height="100pt" version="1.1" viewBox="0 0 100 100" xmlns="http://www.w3.org/2000/svg">
 <path d="m18.75 54.168h37.5c1.293 0 2.082-0.79297 2.082-2.082v-25c0-1.293-0.79297-2.082-2.082-2.082h-37.5c-1.293 0-2.082 0.79297-2.082 2.082v25c0 1.293 0.79297 2.082 2.082 2.082zm12.5 10.414h37.5c1.293 0 2.082-0.79297 2.082-2.082v-25c0-1.293-0.79297-2.082-2.082-2.082h-6.25v16.668c0 4.043-2.207 6.25-6.25 6.25h-27.082v4.168c0 1.293 0.79297 2.082 2.082 2.082zm12.5 10.418h37.5c1.293 0 2.082-0.79297 2.082-2.082v-25c0-1.293-0.79297-2.082-2.082-2.082h-6.25v16.668c0 4.043-2.207 6.25-6.25 6.25h-27.082v4.168c0 1.293 0.79297 2.082 2.082 2.082z"/>
</svg>
